:SAMPLES-PER-SECOND 30
:FULLY-SPECIFIED
:DEGREES
33
root  5.67222 39.347 1.56751 41.462 -85.3096 -47.5361
RightUpLeg  -4.3246 -2.65885 -4.51306
RightLeg  15.4774 -8.87034 -3.80866
RightFoot  -2.65883 -0.997336 12.8486
RightToes  5.82063e-011 0 -3.6325e-017
Spine  14.9413 -1.10835 2.51089
Spine1  -1.32604 -1.16448 2.15586
HEad  6.11493 -15.1213 -3.53712
LeftShoulder1  1.40678 -3.11391 -14.3627
LeftArm  11.3157 18.527 -45.1855
LeftForeArm  38.904 -48.7377 -9.85342
LeftHand  -1.24639 -1.08234 22.2894
RightShoulder  0.982469 1.10803 14.5093
RightArm  2.52274 -22.3746 43.1591
RightForeArm  37.2347 50.5227 10.7219
RightHand  -1.01302 0.80378 -19.0008
LeftUpLeg  -10.5907 8.97383 10.0667
LeftLeg  29.1396 1.62846 1.3251
LeftFoot  -5.05388 0.621417 -10.7199
LeftToes  -1.1369e-010 2.7689e-011 -1.90827e-011
34
root  5.69058 39.2498 1.25383 43.6989 -83.808 -49.6507
RightUpLeg  -4.48269 -3.89918 -2.89708
RightLeg  15.7216 -8.55645 -3.68496
RightFoot  -3.08902 -0.975463 13.1711
RightToes  5.82063e-011 0 -3.6325e-017
Spine  15.1822 -1.00278 3.60552
Spine1  -1.34834 -1.08912 3.48181
HEad  4.29298 -16.4853 -1.05283
LeftShoulder1  1.4446 -2.99919 -15.4036
LeftArm  3.39564 17.7335 -48.4484
LeftForeArm  34.969 -45.618 -8.97318
LeftHand  -0.773721 0.958035 20.3806
RightShoulder  0.983863 1.00486 15.0807
RightArm  -5.62105 -21.2853 45.4084
RightForeArm  28.4677 44.3389 8.97148
RightHand  -0.942404 -0.255903 -21.2147
LeftUpLeg  -13.9031 11.342 12.8054
LeftLeg  33.9484 -2.13719 -1.18942
LeftFoot  -2.17695 1.12221 -13.6307
LeftToes  -1.1369e-010 2.7689e-011 -1.90827e-011
35
root  5.64665 39.185 1.0498 45.3625 -83.2019 -51.4809
RightUpLeg  -4.39055 -4.72804 -2.09149
RightLeg  16.0541 -8.13265 -3.49658
RightFoot  -3.43206 -0.910877 12.7856
RightToes  5.82063e-011 0 -3.6325e-017
Spine  15.3542 -0.843103 4.57636
Spine1  -1.34479 -0.833384 4.10134
HEad  3.02833 -17.8452 0.950819
LeftShoulder1  1.51176 -3.11668 -16.0815
LeftArm  -2.23537 17.137 -51.4567
LeftForeArm  26.4929 -42.1975 -8.39119
LeftHand  -0.49558 2.79161 21.9013
RightShoulder  1.03749 1.1665 15.513
RightArm  -11.3779 -19.7817 47.3174
RightForeArm  16.5272 37.6318 7.63148
RightHand  -0.983927 -0.777639 -24.4748
LeftUpLeg  -15.6981 12.9459 14.9424
LeftLeg  37.2737 -5.6693 -4.24809
LeftFoot  0.255317 1.92417 -18.9004
LeftToes  -1.1369e-010 2.7689e-011 -1.90827e-011
36
root  5.53138 39.1849 0.966126 47.9472 -83.2886 -54.243
RightUpLeg  -3.96594 -5.67475 -2.02961
RightLeg  15.7947 -7.16097 -2.91379
RightFoot  -3.36234 -0.876034 12.1907
RightToes  5.82063e-011 0 -3.6325e-017
Spine  15.2844 -0.668988 5.42449
Spine1  -1.46152 -0.481334 4.14106
HEad  2.9116 -18.591 2.32395
LeftShoulder1  1.60917 -3.4544 -16.4028
LeftArm  -4.76106 16.5919 -54.0841
LeftForeArm  14.6074 -37.4464 -7.69696
LeftHand  -0.467963 3.16728 24.1111
RightShoulder  1.08936 1.39316 15.5452
RightArm  -13.0124 -17.8366 48.6855
RightForeArm  2.67405 30.1507 6.34333
RightHand  -1.13967 -0.568788 -27.1705
LeftUpLeg  -15.825 13.2245 16.4974
LeftLeg  38.662 -8.71671 -7.03366
LeftFoot  -0.513919 2.2063 -23.0146
LeftToes  -1.1369e-010 2.7689e-011 -1.90827e-011
37
root  5.36835 39.2848 0.974003 51.512 -83.8881 -57.7374
RightUpLeg  -3.1841 -6.59099 -2.61845
RightLeg  14.3347 -5.85534 -1.9089
RightFoot  -2.62152 -0.913613 11.7118
RightToes  5.82063e-011 0 -3.6325e-017
Spine  14.9091 -0.454803 5.78734
Spine1  -1.74017 -0.149306 3.8756
HEad  3.61314 -18.7763 2.6733
LeftShoulder1  1.69938 -3.75514 -16.7129
LeftArm  -4.20757 16.0642 -56.1646
LeftForeArm  2.24545 -31.7599 -6.84718
LeftHand  -0.638892 2.21198 23.2947
RightShoulder  1.09259 1.49016 15.1371
RightArm  -11.7276 -15.8114 49.4593
RightForeArm  -8.44316 22.6086 5.88068
RightHand  -1.14859 -0.461516 -26.7323
LeftUpLeg  -14.6338 11.9896 17.3405
LeftLeg  37.3913 -9.53794 -7.39978
LeftFoot  -3.47348 1.58131 -22.2776
LeftToes  -1.1369e-010 2.7689e-011 -1.90827e-011
38
root  5.17748 39.4351 1.06204 56.0182 -84.7547 -61.9835
RightUpLeg  -2.19632 -7.34385 -3.56395
RightLeg  12.0989 -4.53595 -0.901665
RightFoot  -1.49423 -0.985581 11.2889
RightToes  5.82063e-011 0 -3.6325e-017
Spine  14.2999 -0.255278 5.74549
Spine1  -2.07135 0.0722939 3.62907
HEad  4.48469 -18.6064 2.54468
LeftShoulder1  1.79198 -3.96283 -17.3528
LeftArm  -1.09859 15.6539 -57.5417
LeftForeArm  -7.79982 -26.2057 -5.99665
LeftHand  -0.683529 1.05145 18.0799
RightShoulder  1.08084 1.50734 14.7964
RightArm  -14.3314 -14.312 49.2925
RightForeArm  -7.65585 15.8148 8.25721
RightHand  -0.856739 -1.07734 -22.7343
LeftUpLeg  -12.3158 9.16527 17.5681
LeftLeg  32.9306 -6.45361 -4.20099
LeftFoot  -4.77553 1.06828 -18.1694
LeftToes  -1.1369e-010 2.7689e-011 -1.90827e-011
39
root  4.95083 39.5336 1.2458 62.1756 -85.4529 -67.8118
RightUpLeg  -1.26577 -8.11079 -4.516
RightLeg  9.99387 -3.2609 -0.0682192
RightFoot  -0.531562 -1.04829 11.0078
RightToes  5.82063e-011 0 -3.6325e-017
Spine  13.427 -0.231596 5.89927
Spine1  -2.23986 0.114412 3.48337
HEad  4.99953 -18.086 2.5481
LeftShoulder1  1.90505 -4.21443 -18.094
LeftArm  1.70368 15.3436 -58.4887
LeftForeArm  -10.6081 -20.7313 -6.42308
LeftHand  -0.470716 0.392582 11.02
RightShoulder  1.09759 1.55599 14.9315
RightArm  -17.2318 -13.578 48.4755
RightForeArm  0.673993 11.013 10.2458
RightHand  -0.524376 -1.90365 -17.2874
LeftUpLeg  -9.08867 4.84521 17.4547
LeftLeg  26.521 -0.690878 -0.0603883
LeftFoot  -3.40129 1.08584 -15.2479
LeftToes  -1.1369e-010 2.7689e-011 -1.90827e-011
40
root  4.68275 39.5638 1.50084 70.6554 -85.7256 -75.8165
RightUpLeg  -0.497229 -8.82391 -5.28355
RightLeg  8.11724 -2.03772 0.747488
RightFoot  0.160691 -1.12957 11.1908
RightToes  5.82063e-011 0 -3.6325e-017
Spine  12.2274 -0.353747 6.12057
Spine1  -2.1461 -0.0639813 3.59235
HEad  4.92701 -17.0995 2.86251
LeftShoulder1  2.01688 -4.50732 -18.6287
LeftArm  -1.85527 15.0491 -59.4078
LeftForeArm  -0.234348 -14.3309 -10.1533
LeftHand  -0.367241 -0.311253 7.53145
RightShoulder  1.11827 1.57381 15.2974
RightArm  -16.0302 -13.2043 47.4713
RightForeArm  9.73146 8.75782 11.1263
RightHand  -0.327807 -2.44173 -12.7021
LeftUpLeg  -5.65438 -0.0281012 17.0726
LeftLeg  20.3122 4.7815 2.26286
LeftFoot  -2.53145 1.19963 -15.3141
LeftToes  -1.1369e-010 2.7689e-011 -1.90827e-011
41
root  4.41568 39.6144 1.77445 82.0231 -85.793 -86.4753
RightUpLeg  0.116767 -9.20874 -5.86175
RightLeg  5.94894 -0.891136 1.39505
RightFoot  0.973592 -1.27461 11.8346
RightToes  5.82063e-011 0 -3.6325e-017
Spine  10.9005 -0.356993 5.25389
Spine1  -2.00433 -0.443664 4.66032
HEad  4.2489 -15.7893 3.75905
LeftShoulder1  2.1224 -4.70992 -19.3438
LeftArm  -4.39033 14.9343 -60.6402
LeftForeArm  9.77265 -8.82248 -12.9144
LeftHand  -0.529789 -0.290523 10.9705
RightShoulder  1.12653 1.51897 15.7457
RightArm  -11.8492 -12.5348 46.15
RightForeArm  16.9906 8.11174 11.8814
RightHand  -0.235383 -2.8321 -10.3238
LeftUpLeg  -2.93802 -2.948 16.2457
LeftLeg  15.6215 7.93268 3.06827
LeftFoot  -3.80397 1.08895 -16.0805
LeftToes  -1.1369e-010 2.7689e-011 -1.90827e-011
42
root  4.21747 39.7188 2.04178 96.8157 -86.0841 -100.414
RightUpLeg  0.170462 -9.15739 -6.46577
RightLeg  4.10015 -0.00165017 1.4141
RightFoot  1.85656 -1.43708 12.4886
RightToes  5.82063e-011 0 -3.6325e-017
Spine  9.83598 -0.160685 2.51913
Spine1  -2.05328 -0.976977 7.09062
HEad  2.99969 -14.4443 5.9562
LeftShoulder1  2.25701 -4.84567 -20.62
LeftArm  -3.50209 15.1373 -61.3779
LeftForeArm  11.3163 -6.48653 -14.0446
LeftHand  -0.608124 1.38408 17.6613
RightShoulder  1.19612 1.60814 16.7963
RightArm  -6.13742 -11.3987 44.2687
RightForeArm  20.2702 8.23687 12.5692
RightHand  -0.209794 -3.26121 -10.8569
LeftUpLeg  -1.51116 -0.847912 14.861
LeftLeg  12.6466 7.13828 3.66493
LeftFoot  -5.00539 0.89142 -15.4962
LeftToes  -1.1369e-010 2.7689e-011 -1.90827e-011
